<svg width="18" height="20" viewBox="0 0 18 20" fill="none" xmlns="http://www.w3.org/2000/svg">
<path d="M16 19C16.5523 19 17 18.5523 17 18V9.41421C17 9.149 16.8946 8.89464 16.7071 8.70711L9.70711 1.70711C9.31658 1.31658 8.68342 1.31658 8.29289 1.70711L1.29289 8.70711C1.10536 8.89464 1 9.149 1 9.41421V18C1 18.5523 1.44772 19 2 19H5.5C6.05228 19 6.5 18.5523 6.5 18V12C6.5 11.4477 6.94772 11 7.5 11H10.5C11.0523 11 11.5 11.4477 11.5 12V18C11.5 18.5523 11.9477 19 12.5 19H16Z" fill="#FFFCFC" stroke="white"/>
</svg>
