<svg viewBox="0 0 24 27" fill="none" xmlns="http://www.w3.org/2000/svg">
<g clip-path="url(#clip0_203_7)">
<path d="M4.30638 2.59543V2.57516C4.19845 2.62181 4.09852 2.68393 4.01001 2.7594C4.10404 2.69717 4.20316 2.64234 4.30638 2.59543Z" fill="white"/>
<path d="M10.781 14.7077C10.7811 14.705 10.7806 14.7023 10.7795 14.6998C10.7785 14.6974 10.777 14.6951 10.775 14.6932C10.773 14.6913 10.7707 14.6898 10.7681 14.6888C10.7655 14.6878 10.7627 14.6873 10.7599 14.6874C9.06707 13.0822 7.75548 11.2528 6.99346 9.46474C6.8793 9.40492 6.7587 9.3572 6.63379 9.32241C6.25954 9.18191 5.87812 9.0597 5.491 8.95624C5.04871 8.83424 4.59545 8.75251 4.13721 8.71213C4.1604 8.93055 4.19562 9.14764 4.24271 9.36249C4.27512 9.57587 4.32467 9.78653 4.39089 9.99258C5.00473 12.2076 6.50671 14.5446 8.6019 16.5791C8.64103 16.601 8.67658 16.6283 8.7074 16.6601L10.3791 15.0748L10.781 14.7077Z" fill="white"/>
<path d="M14.3149 20.6217C14.2727 20.5199 14.23 20.3983 14.1667 20.2763C12.2835 19.5448 10.4002 18.2847 8.7074 16.6588L8.66519 16.6998L8.64409 16.7196L6.6779 18.6301H6.6568C4.54099 16.6182 3.03853 14.3005 2.42517 12.0864C2.19211 11.2528 1.95952 9.93225 2.34029 8.79413C1.93842 8.89546 1.55765 9.03778 1.21908 9.2819C1.10803 9.36389 1.00202 9.45201 0.901617 9.54582C-0.345236 10.7434 -0.0296875 12.816 0.28778 13.9357C0.901616 16.1507 2.40359 18.4878 4.49879 20.5199C4.53784 20.5421 4.57337 20.5696 4.60429 20.6014L6.5935 18.6909H6.6146V18.6706L6.6568 18.6504C6.699 18.6706 6.72058 18.7116 6.76278 18.7319C7.54542 19.4836 8.37075 20.1745 9.23827 20.7438C9.51315 20.9451 9.80186 21.1284 10.1024 21.2923C10.6741 21.6378 11.2663 21.9224 11.8375 22.1863C12.4027 22.44 12.9906 22.6441 13.5941 22.7962C13.7207 22.8164 13.8689 22.8574 14.0171 22.8777C14.0846 22.9028 14.1562 22.9165 14.2286 22.9182C14.4611 22.9588 14.6942 22.9993 14.9479 23.02C14.887 22.5892 14.8021 22.1617 14.6937 21.7396C14.5897 21.3739 14.4626 20.9874 14.3149 20.6217Z" fill="white"/>
<path d="M23.6038 14.9923C22.8629 12.2896 21.0842 9.52553 18.6313 7.14794V7.12768L20.62 5.19687L20.6622 5.15588C18.2069 2.79856 15.3094 1.0916 12.4949 0.38044C9.9134 -0.290185 7.65132 -0.0667969 5.97766 0.989805C5.64057 1.19273 5.32833 1.43143 5.04683 1.70142C4.7709 1.96925 4.52291 2.26235 4.3064 2.57655C4.49822 2.49503 4.70827 2.39231 4.89865 2.3329C5.05237 2.25753 5.21616 2.20282 5.3854 2.17031C5.4065 2.14958 5.4487 2.14958 5.49091 2.12931C5.52061 2.13025 5.55 2.12324 5.57579 2.10905C5.84636 2.03543 6.12221 1.98109 6.40111 1.94646C6.46441 1.94646 6.52771 1.92619 6.59293 1.92619C6.90082 1.88438 7.21137 1.8633 7.52232 1.86309C7.94577 1.86309 8.38984 1.90362 8.83439 1.94416C8.85917 1.96024 8.88905 1.96741 8.91879 1.96442C9.15186 2.00495 9.38444 2.04595 9.63813 2.08648C9.87072 2.12701 10.1033 2.18827 10.3575 2.24907C10.5268 2.2896 10.696 2.33059 10.885 2.39139C11.0543 2.45219 11.2447 2.49272 11.4125 2.55398C12.5124 2.93752 13.5688 3.42783 14.5651 4.01729C16.0012 4.87664 17.329 5.89271 18.522 7.04523C18.5599 7.0612 18.5902 7.09031 18.6068 7.12676L18.5857 7.16729V7.18756H18.5642L16.5754 9.09764V9.1179H16.5965C16.613 9.15432 16.6431 9.18344 16.6809 9.19943C19.1569 11.577 20.913 14.3613 21.6751 17.0645C21.8017 17.5316 21.9076 17.9788 21.9498 18.426C21.9645 18.4431 21.972 18.4648 21.9709 18.4868H21.9498C21.9882 18.6613 22.0165 18.8377 22.0347 19.0151C22.0558 19.239 22.0558 19.4826 22.0558 19.7268C22.0577 20.0463 22.0375 20.3655 21.9954 20.6825V20.7843C21.9564 21.0734 21.8922 21.3589 21.8036 21.6378C21.805 21.6488 21.8038 21.6601 21.8002 21.6707C21.7965 21.6813 21.7905 21.6909 21.7825 21.699C21.7343 21.9021 21.6634 22.0997 21.571 22.2881C21.5082 22.4862 21.4229 22.6771 21.3168 22.8574C21.6438 22.649 21.9489 22.4107 22.228 22.1458C22.509 21.8762 22.7575 21.577 22.9689 21.2541C24.069 19.6462 24.3021 17.4717 23.6038 14.9923Z" fill="white"/>
<path d="M8.3899 4.32312C8.3266 4.30239 8.2844 4.30239 8.22062 4.28213C7.75544 4.1808 7.30945 4.09789 6.86682 4.03847C6.32759 3.9578 5.78044 3.9374 5.23632 3.97768C4.67094 3.99441 4.10968 4.07622 3.56458 4.22133C2.96127 4.36128 2.38827 4.602 1.87174 4.93249C1.53009 5.13636 1.21779 5.38242 0.942831 5.66437C0.662085 5.92801 0.413658 6.22163 0.202393 6.5395C0.5856 6.34215 0.990005 6.1854 1.40848 6.07199C2.00074 5.9094 2.63567 5.84861 3.29171 5.82834C3.75688 5.80761 4.24363 5.84861 4.73039 5.9094C4.9731 5.9321 5.21361 5.97291 5.44973 6.03146C5.71574 6.05792 5.97799 6.11197 6.23188 6.19267H6.25299C7.15555 6.42637 8.03381 6.73936 8.87665 7.12767C10.8021 8.02169 12.7275 9.34267 14.4203 10.9888C14.4655 11.0117 14.5025 11.0472 14.5263 11.0906L16.5155 9.18008L16.5366 9.15981L16.5788 9.11882H16.5577C14.0827 6.74124 11.2054 5.05454 8.3899 4.32312Z" fill="white"/>
<path d="M12.41 13.1232L12.4322 13.1025H12.41V13.1232Z" fill="white"/>
<path d="M14.4625 11.1312L12.8123 12.7161L12.4738 13.0615C12.516 13.0822 12.5371 13.1228 12.5797 13.143C14.2726 14.7689 15.6489 16.5975 16.5577 18.4675C17.0017 19.3007 17.3192 20.1542 17.5734 20.9874V21.0081C17.6367 21.2518 17.7 21.5148 17.7422 21.7598C17.7849 21.9832 17.8271 22.1863 17.8693 22.4102V22.4516C17.9331 22.9394 17.9753 23.4069 17.9542 23.8334C17.9415 24.4447 17.8492 25.052 17.6794 25.6412V25.662C17.5688 26.0633 17.4126 26.4518 17.2137 26.8204C17.5312 26.5965 17.8486 26.3731 18.1249 26.1088C18.4005 25.8344 18.648 25.5352 18.8639 25.2152C18.991 25.1544 19.0121 25.1134 18.885 25.1747C19.2101 24.6859 19.4529 24.1508 19.6043 23.5893L19.6254 23.569C19.7767 23.0455 19.862 22.5065 19.8796 21.9634C19.9026 21.44 19.8744 20.9157 19.7952 20.3974C19.7475 19.9646 19.6625 19.5363 19.541 19.1169C19.537 19.0608 19.5227 19.0057 19.4988 18.9544C18.7584 16.2525 16.9806 13.4701 14.5263 11.0906L14.4841 11.1312H14.4625Z" fill="white"/>
<path d="M11.437 24.6662C9.1308 24.0766 6.69752 22.6359 4.60233 20.6217L4.56012 20.6622H4.5395L2.55029 22.5728C2.59297 22.6133 2.61408 22.6538 2.65628 22.6746C4.75099 24.7067 7.18427 26.129 9.49095 26.7186C10.6759 27.0235 12.8129 27.3487 14.0822 26.129C14.1848 26.0445 14.2771 25.9491 14.3575 25.8448V25.8246C14.59 25.4961 14.7618 25.1317 14.8654 24.7472C13.6799 25.1332 12.3045 24.8896 11.437 24.6662Z" fill="white"/>
</g>
<defs>
<clipPath id="clip0_203_7">
<rect width="24" height="27" fill="white"/>
</clipPath>
</defs>
</svg>
