<svg width="24" height="24" viewBox="0 0 24 24" fill="none" xmlns="http://www.w3.org/2000/svg">
<path d="M21 10C21 14.798 16.7716 19.1263 14.1114 21.3745C12.8781 22.4168 11.1219 22.4168 9.88858 21.3745C7.22837 19.1263 3 14.798 3 10C3 7.61305 3.94821 5.32387 5.63604 3.63604C7.32387 1.94821 9.61305 1 12 1C14.3869 1 16.6761 1.94821 18.364 3.63604C20.0518 5.32387 21 7.61305 21 10Z" stroke="#09FFC4" stroke-miterlimit="10"/>
<path d="M12 13C13.6569 13 15 11.6569 15 10C15 8.34315 13.6569 7 12 7C10.3431 7 9 8.34315 9 10C9 11.6569 10.3431 13 12 13Z" stroke="#09FFC4" stroke-miterlimit="10"/>
</svg>
