<svg width="24" height="24" viewBox="0 0 24 24" fill="none" xmlns="http://www.w3.org/2000/svg">
<path d="M19 2H9C7.89543 2 7 2.89543 7 4V18C7 19.1046 7.89543 20 9 20H19C20.1046 20 21 19.1046 21 18V4C21 2.89543 20.1046 2 19 2Z" stroke="#FFFCFC"/>
<path d="M18 20V21C18 22.1046 17.1046 23 16 23H6C4.89543 23 4 22.1046 4 21V6C4 4.89543 4.89543 4 6 4H7" stroke="#FFFCFC"/>
<path d="M21 19.5L10.4142 8.91421C9.63317 8.13317 8.36683 8.13317 7.58579 8.91421L7 9.5" stroke="#FFFCFC"/>
<path d="M21 13.5L19.4142 11.9142C18.6332 11.1332 17.3668 11.1332 16.5858 11.9142L15 13.5" stroke="#FFFCFC"/>
</svg>
